<svg version="1.1" id="Layer_1" xmlns="http://www.w3.org/2000/svg" xmlns:xlink="http://www.w3.org/1999/xlink" x="0px" y="0px"
	 width="100%" viewBox="0 0 1024 1024" enable-background="new 0 0 1024 1024" xml:space="preserve">
<path fill="#000000" opacity="1.000000" stroke="none" 
	d="
M635.900818,712.989075 
	C604.772949,731.420105 571.511230,742.684448 536.039734,746.986572 
	C507.556854,750.441040 479.169403,748.838806 451.263092,741.989807 
	C369.615143,721.950989 309.703888,674.650879 273.216309,598.605164 
	C261.072144,573.294922 254.891449,546.249573 252.557541,518.293213 
	C249.958023,487.154816 251.868347,456.441193 260.822540,426.360809 
	C261.459045,424.222504 261.421783,421.674377 263.810883,420.031647 
	C271.235046,424.312531 278.689087,428.647400 286.184326,432.909790 
	C288.393585,434.166168 287.688751,436.024292 287.353638,437.753723 
	C285.456848,447.542725 283.785065,457.354187 282.815002,467.294800 
	C281.193542,483.910431 281.149445,500.482483 282.907440,517.098511 
	C284.839691,535.360779 288.287781,553.256470 294.463562,570.589478 
	C297.596222,579.381531 301.443024,587.841614 305.553772,595.845825 
	C321.161713,580.157288 336.689606,564.549194 352.641815,548.514648 
	C351.038330,545.811096 347.827454,542.928589 344.884186,539.850647 
	C340.509247,535.275696 335.976776,530.851562 331.584290,526.292969 
	C329.873138,524.517029 327.823425,523.766052 325.469727,523.252991 
	C316.291016,521.252258 308.968262,516.204529 302.256958,509.367096 
	C314.490875,504.821777 330.056213,508.409851 345.608765,518.934204 
	C347.940613,512.643372 346.705780,508.537506 341.201965,505.116333 
	C334.270264,500.807526 326.628967,498.699005 318.509430,498.280304 
	C312.520416,497.971466 306.528259,497.722809 300.537842,497.440430 
	C298.618225,497.349945 296.768158,497.151764 296.768280,494.546814 
	C296.769165,477.254944 296.768738,459.963074 296.768738,442.948456 
	C297.618500,442.528595 297.955322,442.205872 298.191895,442.267517 
	C319.626862,447.855469 339.007874,456.676270 351.788971,476.045624 
	C357.469025,484.653595 360.126923,494.128479 360.285950,504.329742 
	C360.426208,513.327271 360.363831,522.328735 360.301910,531.327942 
	C360.286011,533.643616 360.624115,535.500671 362.932159,536.740723 
	C365.567383,538.156555 366.608215,536.000854 367.903534,534.729004 
	C392.038757,511.031006 416.128815,487.286957 440.233917,463.558258 
	C441.568848,462.244202 442.696838,460.877045 442.688141,458.842224 
	C442.641907,448.010254 442.636963,437.178070 442.575989,426.346222 
	C442.572601,425.744415 442.195709,425.144684 441.981628,424.511444 
	C439.825531,424.905731 439.322479,426.678101 438.502472,427.998657 
	C414.734619,466.275238 356.702972,465.816010 333.265961,425.154816 
	C330.347198,420.090973 326.666443,418.523926 321.244690,418.229340 
	C313.656952,417.817078 306.105804,416.661377 298.946106,412.575195 
	C301.787811,409.983337 305.105072,409.987610 308.022888,409.328735 
	C328.887512,404.617249 347.501251,395.291260 364.191132,382.089264 
	C367.649414,379.353668 370.033875,379.312531 373.129913,382.468292 
	C378.753479,388.200409 385.636414,392.304413 393.468658,396.387756 
	C383.603149,406.737732 371.148254,410.974243 358.815826,416.054565 
	C361.330505,419.845337 365.039612,421.880890 368.708344,423.503815 
	C393.174713,434.327057 416.673737,431.956329 439.076324,417.650635 
	C442.496155,415.466858 444.423553,404.377777 442.162018,401.201813 
	C441.115662,399.732422 439.304260,399.685303 437.707458,399.257538 
	C419.513916,394.383728 407.824829,383.039551 405.330414,364.149536 
	C402.423401,342.134796 416.841705,320.580231 441.661560,318.609741 
	C460.413849,317.121002 474.571533,324.120422 483.215729,340.930511 
	C492.702454,359.379089 487.291290,386.207336 464.349030,396.279938 
	C460.026398,398.177795 458.871216,400.613586 458.979828,404.959106 
	C459.233276,415.098297 459.060760,425.248108 459.060760,436.995361 
	C462.490784,433.986145 464.821899,432.062622 467.016998,429.994659 
	C477.689911,419.939850 488.234222,409.746155 499.027649,399.823029 
	C502.634125,396.507385 504.099884,392.865631 504.075989,387.995300 
	C503.946838,361.678406 504.029327,335.360291 504.101379,309.042755 
	C504.113220,304.716614 504.252106,300.373871 504.661194,296.070068 
	C505.170135,290.715881 502.976410,288.239258 497.622131,287.487793 
	C479.879791,284.997498 468.251190,274.415222 460.624146,258.767761 
	C458.704529,254.829514 457.852844,250.569794 456.903351,246.359024 
	C456.303864,243.700302 455.118011,242.549805 452.261688,242.210266 
	C445.512085,241.407883 438.688446,240.687561 432.339691,237.967209 
	C429.869110,236.908600 427.137543,235.634140 427.282776,232.468369 
	C427.413177,229.626251 429.962372,228.494873 432.317291,227.481659 
	C438.802582,224.691299 445.598755,223.147934 452.611206,222.679718 
	C456.298706,222.433502 458.353882,221.011490 460.013245,217.401474 
	C468.768494,198.354004 484.012390,188.594635 504.840057,187.680954 
	C523.398193,186.866837 538.726196,193.378555 549.961670,208.533707 
	C551.145203,210.130188 552.611938,211.814240 552.994690,213.655655 
	C554.695251,221.837433 560.618713,223.237671 567.628845,223.756454 
	C572.928894,224.148682 578.153809,225.402695 582.945618,227.911133 
	C584.882751,228.925217 587.009827,230.111008 586.861389,232.618622 
	C586.720215,235.003143 584.721191,236.294037 582.718018,237.230545 
	C576.610535,240.085892 569.969482,240.974548 563.430298,242.081085 
	C560.112000,242.642609 558.860352,243.958710 558.154785,247.378937 
	C554.179077,266.649139 543.241821,280.140167 524.228943,286.409424 
	C521.070129,287.451019 519.121338,288.685791 519.139526,292.554169 
	C519.270081,320.385040 519.197144,348.216827 519.213867,376.048340 
	C519.214539,377.172638 519.466553,378.296814 519.642151,379.760040 
	C522.384644,379.285858 523.842590,377.335144 525.438049,375.835541 
	C534.664001,367.163635 543.734863,358.326385 552.980164,349.675537 
	C555.608459,347.216309 556.771851,344.566132 556.724182,340.912201 
	C556.554749,327.915070 556.617676,314.913910 556.692932,301.914825 
	C556.823914,279.293335 568.677429,264.298492 590.690308,258.597076 
	C597.730957,256.773468 604.856812,255.114731 611.077759,250.752411 
	C616.395935,274.393005 608.945374,300.322174 580.504761,307.237518 
	C579.860657,307.394165 579.180237,307.394958 578.526917,307.521027 
	C571.397766,308.896667 571.379089,308.899445 571.356445,316.154297 
	C571.340271,321.319336 571.377991,326.484650 571.420715,331.649597 
	C571.423035,331.931793 571.693481,332.211731 571.842957,332.499969 
	C573.052246,333.005524 573.764526,332.070343 574.425720,331.446991 
	C593.215271,313.731079 611.920227,295.924896 630.786255,278.291077 
	C634.493225,274.826233 635.058655,272.144043 631.656860,267.909454 
	C621.546143,255.323334 623.188782,231.141541 640.310974,219.865479 
	C653.653442,211.078568 668.620178,207.694305 683.834106,204.699295 
	C689.212463,203.640518 694.628479,202.758606 700.047729,201.929398 
	C702.354919,201.576385 705.333191,201.175720 705.003174,204.808533 
	C703.665100,219.534546 705.618958,234.466965 701.862915,249.051300 
	C696.941589,268.160065 685.859375,283.244781 671.706116,296.416412 
	C663.834778,303.741882 663.812500,303.729401 656.086731,296.036865 
	C654.552063,294.508789 653.029663,292.963257 651.583618,291.352203 
	C646.191284,285.344543 646.010437,285.136688 640.425171,290.645905 
	C615.149719,315.577332 588.708740,339.255157 562.589172,363.278015 
	C538.311218,385.607117 514.087402,407.998444 489.575104,430.068451 
	C472.638153,445.317841 465.759277,465.337341 461.410034,486.690613 
	C460.363953,491.826508 459.912537,497.083527 459.712158,502.549225 
	C466.532990,497.251160 472.273590,491.106659 477.738495,484.725555 
	C479.588379,482.565460 478.618622,479.559570 478.617828,476.944550 
	C478.611938,457.173889 488.555023,442.957031 503.760223,431.665070 
	C504.797180,430.894989 506.079041,430.454620 507.238342,429.865326 
	C509.137360,431.456055 508.261688,433.411835 508.332794,435.114075 
	C508.819305,446.757416 507.597870,458.438477 509.091492,470.061157 
	C509.421692,472.630768 508.209473,474.512634 506.551117,476.288208 
	C498.138062,485.295959 489.825836,494.398804 481.350800,503.347595 
	C458.894989,527.058838 436.658295,550.993042 412.617218,573.135803 
	C409.071259,576.401794 409.054810,578.662048 412.450195,582.007446 
	C421.467072,590.891663 430.194550,600.069153 439.073181,609.094666 
	C439.953552,609.989502 440.597870,611.293152 442.662506,611.471436 
	C442.662506,601.454163 442.643890,591.520142 442.666565,581.586182 
	C442.707275,563.737793 450.278412,552.847961 466.984497,546.612549 
	C474.097321,543.957764 481.679321,542.539429 488.096008,537.701843 
	C492.791168,559.264648 488.195892,582.082336 464.972748,589.542603 
	C457.142731,592.057983 457.124573,591.934875 457.138611,600.108704 
	C457.198700,635.106934 457.344269,670.105530 457.186279,705.102844 
	C457.163361,710.174255 458.800659,712.220337 463.758545,712.830872 
	C470.835693,713.702393 477.842346,715.174194 484.859436,716.493958 
	C488.317474,717.144348 490.207703,715.736328 492.107880,712.808472 
	C506.997681,689.865356 528.111206,677.596619 555.598389,677.839111 
	C571.914917,677.983093 586.540161,683.964111 598.983643,694.606873 
	C601.756409,696.978516 603.782715,697.083496 606.831909,695.493347 
	C643.575806,676.331421 672.964355,649.258179 695.244690,614.303894 
	C712.431213,587.341064 723.075684,557.876953 728.297302,526.573059 
	C732.452576,501.661865 732.034729,476.481537 728.990295,451.388458 
	C728.690002,448.913544 728.522156,446.408234 728.007141,443.977570 
	C727.477417,441.477020 728.288269,439.860870 730.384216,438.532166 
	C736.432800,434.697876 742.428101,430.779327 748.430359,426.872314 
	C751.185120,425.079193 752.570557,425.228729 753.535339,428.969391 
	C759.822327,453.345520 761.668762,478.049652 760.437561,503.152252 
	C758.746277,537.635803 751.428467,570.773438 736.741272,601.996704 
	C714.583130,649.102539 681.292603,686.361511 635.900818,712.989075 
M398.349426,607.902527 
	C413.313751,615.935425 421.993927,628.352600 422.837189,645.342407 
	C423.772369,664.184753 415.196014,678.161804 397.678558,687.405090 
	C399.130157,688.329468 399.687378,688.702332 400.261353,689.047241 
	C412.431366,696.357788 425.233765,702.312683 438.641327,706.977173 
	C442.743256,708.404175 442.649658,705.666321 442.650909,703.004272 
	C442.659271,685.343811 441.988373,667.647583 442.921570,650.036255 
	C443.486145,639.381592 440.073792,631.756958 432.595062,624.585510 
	C412.397064,605.217346 392.653137,585.375916 372.700836,565.750916 
	C370.705353,563.788147 369.084991,561.392029 365.340698,559.401794 
	C363.653961,561.465332 361.955170,563.956177 359.856110,566.044739 
	C345.921600,579.909668 331.879974,593.666992 317.940125,607.526489 
	C316.445831,609.012146 313.760468,610.242554 315.673920,613.260803 
	C321.178955,621.944336 327.143707,630.267273 334.324280,638.100037 
	C334.830658,637.086060 335.186279,636.527771 335.402100,635.919861 
	C345.434509,607.660706 370.036926,596.463440 398.349426,607.902527 
M666.566833,282.916962 
	C682.201355,267.530090 690.411072,248.878510 691.577637,226.969772 
	C692.059875,217.913177 691.162170,216.590652 682.221619,218.415649 
	C670.177917,220.874100 658.063354,223.413940 647.968750,231.165909 
	C637.993896,238.825836 636.150513,250.341843 643.258118,260.700623 
	C648.637451,268.540710 655.516846,275.140137 661.542786,282.448639 
	C662.726257,283.883942 664.106384,285.320160 666.566833,282.916962 
M442.681519,492.703461 
	C442.681519,490.294617 442.681519,487.885773 442.681519,484.410370 
	C440.338989,486.462677 438.904785,487.570129 437.643250,488.847992 
	C428.172729,498.441040 418.693359,508.017303 408.807312,517.194702 
	C399.782471,525.572632 391.011536,534.225281 382.181854,542.811523 
	C377.402954,547.458618 377.420654,547.720947 381.871979,552.328918 
	C385.688080,556.279297 389.757355,560.001953 393.365814,564.130249 
	C395.856628,566.979919 397.624634,566.298706 399.867249,564.048096 
	C413.140198,550.727722 426.441162,537.434937 439.795441,524.196167 
	C441.830322,522.178833 442.754211,520.003601 442.707703,517.116821 
	C442.581696,509.295624 442.678528,501.470856 442.681519,492.703461 
z"/>
<path fill="#000000" opacity="1.000000" stroke="none" 
	d="
M648.324585,565.295898 
	C634.244934,582.449585 619.329407,598.389160 604.792542,614.665161 
	C601.964966,617.830933 600.301880,618.069641 596.862305,615.108215 
	C576.918701,597.936829 556.708130,581.074768 536.545715,564.158447 
	C528.452515,557.368225 528.237488,557.308899 534.321472,548.706665 
	C551.270386,524.742310 570.517761,502.586151 588.795593,479.664612 
	C597.687866,468.513123 608.070984,458.373322 613.973938,445.015656 
	C614.739014,443.284302 616.346497,442.249939 617.857971,441.208649 
	C632.535767,431.096466 647.194763,420.956604 661.925476,410.921936 
	C664.870300,408.915924 667.782166,406.276855 671.913452,408.713470 
	C673.494568,409.646088 674.606628,407.852722 675.809021,407.088226 
	C690.289551,397.881622 704.736511,388.622162 719.234192,379.442688 
	C721.445923,378.042328 723.675476,376.497375 726.976135,376.271820 
	C727.444702,381.287445 725.910889,385.887177 725.044250,390.482971 
	C718.235474,426.589996 711.140320,462.637878 701.339722,498.088989 
	C700.836487,499.909271 700.121765,501.526459 698.888916,502.917847 
	C681.199524,522.881836 665.910889,544.791138 648.324585,565.295898 
M688.915833,493.326935 
	C693.269836,478.506622 697.562561,463.667725 702.040955,448.885101 
	C702.749146,446.547302 702.140991,445.220490 700.493103,443.700775 
	C692.039490,435.904663 682.540649,429.399872 673.819702,421.941345 
	C671.707581,420.135010 669.980774,420.861847 668.015686,422.165253 
	C658.174561,428.692871 648.280884,435.141113 638.421021,441.640625 
	C635.135254,443.806519 631.596802,445.642761 628.811096,448.488861 
	C632.720154,453.546051 682.446716,494.176636 687.738281,496.711823 
	C688.769836,496.076538 688.483887,494.951691 688.915833,493.326935 
M644.830566,523.182129 
	C648.182617,522.224976 648.801147,518.745911 651.117676,516.816589 
	C649.644592,513.995667 647.386902,512.260803 645.264282,510.478607 
	C638.282288,504.616211 630.966797,499.127594 624.252380,492.978912 
	C620.316772,489.374969 618.757141,492.210419 616.312500,494.450928 
	C613.206787,497.297272 615.201782,499.072601 617.330505,500.828247 
	C626.280273,508.209412 635.274536,515.536560 644.830566,523.182129 
M596.858154,519.546021 
	C594.507996,521.334045 592.233093,523.188110 590.660583,526.300171 
	C601.050415,535.014587 611.063171,543.841309 621.866089,551.763550 
	C623.444214,550.066406 624.499634,548.771484 625.719299,547.656067 
	C627.706238,545.838867 627.996460,544.122925 625.835510,542.240967 
	C616.690308,534.276611 607.493713,526.377502 596.858154,519.546021 
M586.059998,556.458618 
	C584.256042,554.983521 582.443298,553.519043 580.649597,552.031555 
	C572.860352,545.572021 574.934631,545.857971 568.205017,553.113892 
	C568.113098,553.213013 568.146545,553.428406 568.040955,554.106750 
	C577.521118,563.398315 588.407471,571.444885 598.722168,580.254395 
	C599.995300,578.748169 600.703735,577.543091 601.732971,576.759460 
	C605.165771,574.145935 604.937256,572.012634 601.554749,569.393372 
	C596.426819,565.422546 591.579590,561.089172 586.059998,556.458618 
z"/>
<path fill="#000000" opacity="1.000000" stroke="none" 
	d="
M277.946655,243.881592 
	C315.111023,219.773148 360.636414,225.757278 382.070190,243.249557 
	C381.181030,245.759384 378.854858,246.924973 376.954712,248.425812 
	C352.448120,267.782501 340.519592,293.001984 342.482452,324.221313 
	C343.432312,339.328491 349.486664,352.891785 358.205688,365.199280 
	C359.952972,367.665680 360.967743,369.558960 358.000153,371.884613 
	C336.152130,389.006500 311.960724,400.346710 283.900696,402.365997 
	C280.022217,402.645081 276.690582,401.577118 273.674194,399.236023 
	C243.452927,375.780182 230.249191,345.187927 236.119614,307.202576 
	C240.315109,280.055054 254.730606,259.152344 277.946655,243.881592 
M270.316040,332.434784 
	C268.914764,334.977539 270.801178,336.558105 272.488861,337.152008 
	C276.620422,338.605896 277.441925,333.440125 280.536072,332.551636 
	C289.506622,337.383881 289.506622,337.383881 292.159485,333.341858 
	C291.108002,332.196625 290.093811,330.885895 288.874969,329.806183 
	C286.091278,327.340179 286.260834,324.905762 288.980133,322.693085 
	C293.348297,319.138794 291.091736,317.021484 287.756775,314.993347 
	C284.700958,315.874573 283.826843,319.305206 280.757599,320.144501 
	C279.014801,318.659119 277.239136,317.184723 275.508148,315.659637 
	C273.699738,314.066376 272.204681,314.582886 270.835938,316.253204 
	C269.593292,317.769623 268.697571,319.325592 270.433685,321.081390 
	C271.252472,321.909424 272.050476,322.772583 272.955475,323.498047 
	C275.692108,325.691803 275.898071,327.712646 272.784271,329.767426 
	C271.974518,330.301788 271.386169,331.171631 270.316040,332.434784 
M276.413574,282.808502 
	C277.819885,281.518036 280.189362,280.656128 279.491302,278.223206 
	C278.817200,275.873993 276.765350,274.394592 274.554657,273.697052 
	C272.559845,273.067627 271.293854,274.885223 270.003998,276.126068 
	C268.955811,277.134369 268.361481,278.450378 269.483246,279.627777 
	C271.199524,281.429169 272.409119,284.355347 276.413574,282.808502 
M313.780731,375.913574 
	C311.869019,379.145477 314.920929,380.135834 316.599792,381.033112 
	C318.655823,382.131927 320.116608,379.905853 320.759644,378.438202 
	C322.122772,375.326843 319.217163,374.378082 317.364288,372.709930 
	C316.174530,373.752808 315.188629,374.617035 313.780731,375.913574 
M304.451141,268.991425 
	C308.182709,271.990051 308.492035,267.937195 310.255157,266.523193 
	C308.831940,264.439026 307.654572,262.364166 305.006256,263.846527 
	C303.098297,264.914490 301.830688,266.460907 304.451141,268.991425 
z"/>
<path fill="#000000" opacity="1.000000" stroke="none" 
	d="
M800.550171,298.231934 
	C797.198120,301.174103 794.891357,304.728455 790.850098,307.047272 
	C788.352539,300.724152 788.064758,294.194092 786.189209,287.835968 
	C783.221924,287.824585 781.747131,290.006927 780.149963,291.757660 
	C760.391724,313.415009 738.749146,333.239502 718.864746,354.764832 
	C712.545898,361.605133 705.700500,366.588715 695.913391,366.759979 
	C684.344727,366.962433 674.726013,372.983765 664.752075,377.901886 
	C660.502808,379.997223 656.429199,382.658447 651.061646,383.552704 
	C651.507324,378.343231 653.776245,374.202332 655.837402,370.266113 
	C662.614136,357.324524 665.203857,343.376221 666.703125,329.115479 
	C667.158875,324.780212 669.668274,322.014984 672.559814,319.097839 
	C694.473206,296.989990 716.258362,274.755035 738.073486,252.549835 
	C738.750488,251.860626 739.318176,251.063995 740.315430,249.860687 
	C732.510315,248.581924 724.987427,249.705582 717.709961,248.067520 
	C719.700195,241.665024 728.938293,234.680557 735.145996,234.874512 
	C738.799133,234.988632 742.500793,235.060501 746.081360,235.703827 
	C756.809265,237.631302 765.921631,231.524460 775.944519,229.970291 
	C784.794495,228.597992 793.554260,226.645111 802.356750,224.963516 
	C803.502808,224.744553 804.672180,224.577484 806.171204,225.984070 
	C804.547546,233.857590 803.310913,242.223785 801.048462,250.302689 
	C797.077087,264.483917 797.524536,278.447021 801.591736,292.428284 
	C802.186279,294.472198 802.523010,296.318604 800.550171,298.231934 
M701.784424,318.525787 
	C700.363892,318.979736 698.794312,319.185638 697.550049,319.933044 
	C693.444519,322.399353 690.938721,325.811340 691.224304,330.954437 
	C691.497314,335.872559 694.050964,339.081543 698.330750,340.901642 
	C702.773804,342.791260 706.951538,341.508820 710.355286,338.461884 
	C713.485718,335.659576 715.026428,331.983826 713.683594,327.666290 
	C711.983337,322.199951 708.352417,318.995300 701.784424,318.525787 
M732.524536,286.408142 
	C731.088684,286.760559 729.553040,286.896545 728.234741,287.504059 
	C723.364868,289.748230 720.962463,294.134033 721.355896,299.590851 
	C721.733704,304.831360 725.274536,307.652344 729.597229,309.170776 
	C734.130676,310.763306 738.079529,308.702301 741.084290,305.197418 
	C746.928284,298.380676 742.955383,288.915741 732.524536,286.408142 
z"/>
<path fill="#000000" opacity="1.000000" stroke="none" 
	d="
M490.678711,681.773438 
	C487.069397,682.991211 484.431335,685.611084 479.615784,686.138550 
	C492.899567,646.393677 505.966797,607.296753 519.381226,567.160828 
	C544.751648,586.950745 568.058105,607.342224 592.845276,627.958496 
	C559.128601,647.305420 524.629272,663.634521 490.678711,681.773438 
z"/>
<path fill="#000000" opacity="1.000000" stroke="none" 
	d="
M518.722961,457.935791 
	C518.694580,447.450653 518.814819,437.453339 518.581543,427.464233 
	C518.490479,423.568085 519.876465,420.847931 522.805176,418.447540 
	C534.726746,408.676727 548.614258,403.501648 563.552185,400.712372 
	C566.978516,400.072632 570.427002,399.552002 573.853760,398.914551 
	C576.800476,398.366364 578.200500,399.378662 578.244080,402.524445 
	C578.477356,419.339294 578.939453,436.145416 574.365234,452.610870 
	C573.438416,455.946869 571.802185,457.593719 568.452698,458.261902 
	C554.268372,461.091705 540.154968,464.279236 525.845459,466.464142 
	C519.121460,467.490845 519.070984,467.486725 518.788635,460.924713 
	C518.752869,460.092804 518.748962,459.259521 518.722961,457.935791 
z"/>
<path fill="#000000" opacity="1.000000" stroke="none" 
	d="
M753.513550,396.553345 
	C751.042053,398.287567 748.875732,399.832703 746.659424,401.302490 
	C746.138245,401.648163 745.448425,401.739502 744.811218,401.956299 
	C743.340698,400.004791 745.058777,398.771606 745.620056,397.399597 
	C748.825073,389.564789 752.275085,381.877136 752.868774,373.189148 
	C753.599854,362.490509 749.259338,354.159088 741.868408,347.008392 
	C739.974426,345.175995 737.971436,343.456207 735.042908,340.799652 
	C750.423706,330.738617 765.720886,321.907288 781.975220,312.315918 
	C780.826294,331.036713 779.782593,348.073486 778.728394,365.109619 
	C778.687439,365.771606 778.358521,366.464508 778.480164,367.080444 
	C780.280151,376.187775 774.781921,381.058929 768.159058,385.538849 
	C763.204956,388.889954 758.574890,392.719971 753.513550,396.553345 
z"/>
<path fill="#000000" opacity="1.000000" stroke="none" 
	d="
M533.087402,508.223572 
	C516.711792,516.481445 499.300873,518.367432 481.030640,520.429688 
	C483.395966,515.191895 486.942902,512.140869 490.018494,508.786011 
	C498.005127,500.074341 506.151428,491.509216 514.195007,482.849426 
	C516.979858,479.851135 520.030579,477.901886 524.333923,477.199860 
	C537.429321,475.063599 550.434143,472.372314 563.476318,469.908539 
	C564.788269,469.660736 566.114319,469.497223 568.014832,470.562958 
	C560.564880,486.878479 549.752869,499.943329 533.087402,508.223572 
z"/>
<path fill="#000000" opacity="1.000000" stroke="none" 
	d="
M648.289062,813.176514 
	C646.733704,814.754272 644.980164,814.555542 643.369690,814.786438 
	C639.549683,815.334106 637.364014,814.183716 637.591614,809.730652 
	C637.837280,804.921570 637.582275,800.086365 637.508850,795.263123 
	C637.504883,795.005188 637.159851,794.752502 636.771118,794.220093 
	C633.896973,796.093750 632.422058,799.179504 630.433105,801.711121 
	C628.148132,804.619568 626.315063,804.476868 624.071533,801.877502 
	C622.050720,799.536072 619.913208,797.295349 617.219910,794.345093 
	C615.692322,799.934570 616.493286,804.739502 616.366516,809.454529 
	C616.286743,812.422974 616.545837,815.140381 612.205627,815.146423 
	C608.303467,815.151855 605.403870,814.796082 605.183289,809.818665 
	C604.696350,798.831116 605.727051,787.879272 605.636597,776.906372 
	C605.625366,775.543701 605.846619,773.940491 607.560730,773.926270 
	C610.893372,773.898560 614.476929,772.367188 617.339478,775.680115 
	C620.574158,779.423706 622.755005,784.053650 627.014832,787.385681 
	C630.541748,784.568970 632.561768,780.707397 635.138184,777.323547 
	C637.519226,774.196228 643.655579,772.342224 647.110474,773.675964 
	C648.232727,774.109192 648.705322,774.867371 648.624573,775.941040 
	C647.724304,787.907471 648.810913,799.865784 648.731567,811.828003 
	C648.729431,812.148438 648.560364,812.467773 648.289062,813.176514 
z"/>
<path fill="#000000" opacity="1.000000" stroke="none" 
	d="
M407.754822,775.068054 
	C412.536469,781.420532 417.075867,787.485962 422.488068,794.717590 
	C424.375031,788.779724 423.733643,784.150635 423.571381,779.708130 
	C423.390167,774.747009 425.393219,773.277588 430.046936,773.583740 
	C433.165588,773.788879 434.980774,774.171570 434.838959,778.041870 
	C434.467010,788.193359 434.568695,798.361450 434.316010,808.518738 
	C434.264191,810.602478 435.503662,813.396423 432.216644,814.440063 
	C428.967407,815.471619 425.904022,815.432068 423.548798,812.575867 
	C419.523529,807.694702 415.595490,802.733459 411.596802,797.830200 
	C410.563782,796.563416 409.419708,795.387268 407.817841,793.602661 
	C407.174591,799.163269 407.149323,804.010559 407.886566,808.886108 
	C408.429657,812.477905 407.867798,815.138000 403.229065,815.161133 
	C399.160706,815.181396 396.537537,814.484070 396.661560,809.467529 
	C396.900391,799.807312 396.683899,790.136169 396.687408,780.469604 
	C396.690125,773.056824 400.686127,770.969177 407.754822,775.068054 
z"/>
<path fill="#000000" opacity="1.000000" stroke="none" 
	d="
M385.834137,784.485718 
	C390.112976,795.212280 387.640076,805.732483 379.826477,811.170044 
	C371.274872,817.121155 358.864349,817.014038 351.955658,810.929504 
	C342.557953,802.652954 341.991119,787.549011 350.752930,778.880188 
	C359.688538,770.039368 374.320465,770.576538 382.763245,780.103271 
	C383.855103,781.335327 384.693756,782.791687 385.834137,784.485718 
M375.197540,800.505127 
	C376.089874,799.267334 376.709991,797.918518 376.834442,796.379211 
	C377.206757,791.772827 376.104431,787.752869 372.054718,785.042542 
	C367.929779,782.281738 363.870789,782.925781 359.923645,785.512939 
	C356.156647,787.981995 354.714386,791.593689 355.495544,795.868774 
	C356.222260,799.846252 358.509003,803.132263 362.437164,804.366455 
	C367.012665,805.804077 371.350403,804.914246 375.197540,800.505127 
z"/>
<path fill="#000000" opacity="1.000000" stroke="none" 
	d="
M509.062164,783.367981 
	C506.758392,783.387268 504.923828,783.350281 503.095520,783.440613 
	C501.081299,783.540222 500.129059,784.728210 500.103668,786.700562 
	C500.077362,788.744263 501.135651,789.808655 503.139465,789.847717 
	C506.469543,789.912659 509.802856,789.984924 513.131287,789.905884 
	C516.170532,789.833801 517.356018,791.278442 517.165649,794.188843 
	C516.990479,796.866943 516.602844,799.229065 513.030640,799.103699 
	C509.869873,798.992737 506.702606,799.040161 503.538544,799.062805 
	C501.500854,799.077393 499.818756,799.802917 499.684906,802.087219 
	C499.527954,804.764771 501.641418,804.839600 503.486450,804.857239 
	C506.982666,804.890564 510.490784,804.926880 513.974487,804.683777 
	C517.676147,804.425476 518.575989,806.269104 518.366028,809.513428 
	C518.183594,812.331604 518.817566,815.433777 514.334229,815.303040 
	C507.342041,815.099304 500.345459,815.039795 493.350372,814.946533 
	C490.150452,814.903870 488.572052,813.665100 488.622437,810.130249 
	C488.774414,799.471741 488.716614,788.808655 488.604309,778.148865 
	C488.571747,775.060669 489.521637,773.615540 492.865723,773.619873 
	C499.519989,773.628540 506.175751,773.145386 512.828735,773.189148 
	C515.515503,773.206848 519.309387,772.269653 519.132874,777.245300 
	C518.990417,781.262878 517.952759,784.156982 513.028076,783.386292 
	C511.890350,783.208191 510.700165,783.365051 509.062164,783.367981 
z"/>
<path fill="#000000" opacity="1.000000" stroke="none" 
	d="
M716.120605,777.937622 
	C713.172424,781.806519 710.648193,785.561340 707.662048,788.903381 
	C704.898132,791.996765 705.018005,794.580200 707.556763,797.657593 
	C710.626953,801.379272 713.442505,805.312012 716.336853,809.176941 
	C717.302734,810.466797 718.724670,811.547852 718.564575,813.461548 
	C708.552490,817.510864 703.176514,811.588989 698.321045,802.914307 
	C693.086975,810.449646 688.701416,818.815308 677.815369,813.400452 
	C680.332031,807.836182 684.883911,803.590027 688.708618,798.893005 
	C691.494568,795.471863 691.890076,792.904297 688.916626,789.399475 
	C685.076050,784.872620 681.747986,779.911011 678.035889,774.916809 
	C688.418152,770.596741 693.830933,776.204163 698.260559,784.833679 
	C703.301819,777.777161 707.509399,770.432312 717.494385,774.412842 
	C718.241760,775.663696 717.049316,776.585999 716.120605,777.937622 
z"/>
<path fill="#000000" opacity="1.000000" stroke="none" 
	d="
M561.356323,788.964355 
	C560.791687,798.880371 555.803650,803.606506 544.833679,804.011536 
	C540.433350,804.174072 538.786682,805.489136 539.292969,809.806946 
	C539.636536,812.737122 539.080444,815.126587 535.191650,815.009705 
	C531.811707,814.908020 528.534668,815.473511 528.180420,810.373718 
	C527.406982,799.241211 527.836609,788.110901 527.728088,776.980469 
	C527.705688,774.684082 528.938416,773.696899 531.152832,773.708191 
	C536.970154,773.737793 542.821899,773.357666 548.596497,773.863953 
	C556.235168,774.533691 560.984863,780.357666 561.356323,788.964355 
M544.256897,783.359741 
	C542.106995,783.412048 539.531372,783.035828 539.407959,786.194458 
	C539.302063,788.904785 537.968567,792.260071 540.597473,794.121155 
	C542.568542,795.516602 545.449036,795.164124 547.680298,793.640381 
	C549.537537,792.372009 550.927124,790.695801 550.553223,788.221436 
	C550.081909,785.102600 547.990479,783.742004 544.256897,783.359741 
z"/>
<path fill="#000000" opacity="1.000000" stroke="none" 
	d="
M324.468506,804.636108 
	C326.370331,803.910278 327.993256,803.406982 329.369293,802.520569 
	C333.425629,799.907471 335.856262,803.083252 337.775330,805.395264 
	C339.718842,807.737000 337.150208,809.628418 335.375397,811.083557 
	C327.223846,817.766785 314.781311,816.928406 307.230042,809.254700 
	C299.260284,801.155701 298.853638,788.757996 306.279358,780.270813 
	C313.701385,771.787842 325.300476,770.140076 334.110626,776.519653 
	C336.006012,777.892151 339.766266,779.201172 337.203400,782.515015 
	C335.186432,785.123108 333.173187,788.744263 328.335052,785.545715 
	C322.918152,781.964539 318.934875,782.936951 315.128387,787.464355 
	C311.496460,791.784180 311.322296,797.053650 314.734100,801.147522 
	C317.168030,804.068115 320.301056,805.252686 324.468506,804.636108 
z"/>
<path fill="#000000" opacity="1.000000" stroke="none" 
	d="
M454.406494,795.543945 
	C458.080048,805.290771 462.602173,807.012451 471.790192,802.348511 
	C475.842255,800.291687 478.239777,803.323975 480.351837,805.452332 
	C482.509430,807.626526 479.673187,809.306519 478.220612,810.651062 
	C472.231964,816.194519 465.104004,816.891357 457.728485,814.464355 
	C449.138519,811.637756 444.311066,805.234131 443.454437,796.373169 
	C442.647461,788.025269 445.573029,780.986755 452.925995,776.288879 
	C460.592072,771.390930 470.571320,771.333435 476.842712,776.326050 
	C478.621246,777.742004 481.762207,779.337708 479.429657,782.251099 
	C477.497772,784.664124 475.398132,787.949280 471.183228,785.653076 
	C467.611420,783.707214 464.046509,782.210754 459.944153,784.820740 
	C456.041626,787.303650 454.015320,790.515137 454.406494,795.543945 
z"/>
<path fill="#000000" opacity="1.000000" stroke="none" 
	d="
M622.133057,655.400085 
	C624.740356,663.296326 623.023621,669.661804 617.502930,673.565735 
	C611.433472,677.857605 604.892090,677.907410 599.556458,673.550110 
	C594.511230,669.429993 593.233582,664.022949 594.723145,657.880920 
	C596.070801,652.323792 599.666931,648.768677 605.265747,647.889160 
	C612.167847,646.804993 618.155151,648.546021 622.133057,655.400085 
z"/>
<path fill="#000000" opacity="1.000000" stroke="none" 
	d="
M598.296021,402.263123 
	C593.775085,400.922729 594.823608,397.394104 594.901428,394.651825 
	C595.019104,390.502197 593.477478,389.027802 589.348938,389.291016 
	C585.460938,389.538879 580.768555,390.283722 580.200073,384.377075 
	C579.811523,380.340393 582.265259,378.793243 589.404297,378.985626 
	C593.845032,379.105316 595.511414,377.431824 594.980469,373.116547 
	C594.540161,369.537659 594.896545,366.392700 599.509644,365.768311 
	C604.306458,365.119049 605.945312,366.569977 605.656799,371.520081 
	C605.246826,378.553497 605.247437,378.528717 612.332520,378.708954 
	C613.984375,378.750977 615.667480,378.861511 617.270752,379.227325 
	C619.971069,379.843414 621.123230,381.969116 620.946777,384.460510 
	C620.777100,386.856995 619.631958,388.959625 616.903931,389.536896 
	C616.256653,389.673889 615.587708,389.757385 614.926636,389.771851 
	C606.239746,389.962585 606.097595,389.946564 605.377502,398.612488 
	C604.968811,403.531097 601.506958,402.080475 598.296021,402.263123 
z"/>
<path fill="#000000" opacity="1.000000" stroke="none" 
	d="
M598.294067,779.218872 
	C598.250916,782.421326 596.708130,783.225769 594.105530,783.373352 
	C587.216431,783.763916 586.342102,785.005066 586.700562,791.866150 
	C587.021667,798.012390 587.002808,804.175781 587.259155,810.326355 
	C587.399475,813.692688 586.115417,815.459534 582.614441,814.992310 
	C579.560364,814.584595 575.529968,815.690735 575.643616,810.289978 
	C575.794250,803.134277 575.533630,795.968201 575.761414,788.816528 
	C575.891296,784.737915 574.494080,783.162292 570.297302,783.297241 
	C564.803711,783.473816 564.120422,782.302979 564.657349,776.842163 
	C564.889954,774.476135 565.964172,773.688110 568.151611,773.688171 
	C577.141479,773.688416 586.132080,773.695862 595.120911,773.581604 
	C599.322571,773.528198 598.251343,776.447998 598.294067,779.218872 
z"/>
<path fill="#000000" opacity="1.000000" stroke="none" 
	d="
M659.339478,611.262207 
	C665.286255,615.739380 666.967041,621.274048 664.281860,626.609253 
	C661.459412,632.217041 655.429565,634.762939 650.139709,632.580200 
	C644.546997,630.272583 641.300415,623.338928 643.199890,617.759338 
	C645.144653,612.046692 650.622131,609.052856 656.594421,610.445862 
	C657.400391,610.633789 658.197571,610.859680 659.339478,611.262207 
z"/>
<path fill="#000000" opacity="1.000000" stroke="none" 
	d="
M671.150269,789.004150 
	C671.179382,796.314331 671.152771,803.126038 671.250244,809.935913 
	C671.297852,813.261169 670.431519,815.524841 666.503418,815.185303 
	C663.292419,814.907654 660.369873,814.973450 660.539490,810.090942 
	C660.896790,799.803345 660.851196,789.489563 660.565979,779.197693 
	C660.443420,774.774536 661.917175,773.514404 666.251282,773.517517 
	C670.977417,773.520935 671.295776,775.968445 671.108276,779.536743 
	C670.951599,782.517273 671.120728,785.514832 671.150269,789.004150 
z"/>
<path fill="#000000" opacity="1.000000" stroke="none" 
	d="
M407.775818,300.803406 
	C404.019897,301.038269 402.281464,299.576294 402.678772,296.123138 
	C403.108246,292.390686 401.513672,290.966125 397.814728,291.292480 
	C394.872620,291.552032 391.847778,291.396423 391.760010,287.288361 
	C391.667786,282.971985 394.788818,282.577820 397.948822,282.730560 
	C401.243652,282.889893 403.124969,281.924408 402.696228,278.267059 
	C402.312836,274.996338 403.577942,273.168335 407.095978,273.256500 
	C410.281677,273.336426 411.661041,274.994629 411.307678,278.053528 
	C410.847565,282.036072 412.950714,282.927673 416.381226,282.688202 
	C419.668396,282.458740 422.588745,283.100250 422.473053,287.325531 
	C422.360687,291.428406 419.298920,291.570435 416.377380,291.294678 
	C412.354828,290.914948 410.869751,292.610748 411.314514,296.484894 
	C411.577881,298.779510 410.666260,300.374390 407.775818,300.803406 
z"/>
<path fill="#000000" opacity="1.000000" stroke="none" 
	d="
M682.849243,584.615112 
	C677.340393,582.128235 674.964172,578.146057 675.388794,572.513977 
	C675.709290,568.262085 677.955444,565.278748 681.850037,563.828369 
	C686.498840,562.097168 690.814392,563.067810 694.076782,566.864380 
	C697.043213,570.316467 697.504578,574.389893 695.500610,578.508911 
	C693.085266,583.473694 688.907104,585.510681 682.849243,584.615112 
z"/>
<path fill="#000000" opacity="1.000000" stroke="none" 
	d="
M307.857941,540.918579 
	C309.826813,540.682861 311.457581,540.325134 311.512146,538.428894 
	C311.613007,534.924744 313.360443,533.633972 316.647217,534.164612 
	C320.425812,534.774597 318.192535,537.872192 318.744293,539.591797 
	C319.888458,541.018860 321.330963,540.718567 322.593903,540.659973 
	C325.276398,540.535400 326.782227,541.614746 326.681976,544.358337 
	C326.596771,546.690918 325.974731,548.701111 322.929626,548.421326 
	C319.704010,548.124817 318.375702,549.797852 318.380676,552.861877 
	C318.383636,554.704407 317.892731,556.219238 315.613495,556.149475 
	C313.645599,556.089172 312.093079,555.503784 311.451904,553.322388 
	C310.918671,551.508301 310.824127,549.166443 307.934540,549.290710 
	C305.470612,549.396667 303.765625,548.685425 303.670227,545.718079 
	C303.580078,542.913940 304.506409,541.214539 307.857941,540.918579 
z"/>
<path fill="#000000" opacity="1.000000" stroke="none" 
	d="
M370.593414,313.433411 
	C373.990814,308.611664 374.819092,308.490845 377.896393,312.619507 
	C379.259918,314.448975 381.166870,315.381561 382.917725,316.620453 
	C385.832794,318.683105 385.800018,321.009460 383.030029,323.065491 
	C380.636475,324.842102 378.126678,326.316803 376.440979,328.990112 
	C375.105255,331.108398 373.173767,330.409637 372.056458,328.535400 
	C370.986023,326.739777 369.563080,325.532135 367.837006,324.439026 
	C363.195831,321.499695 363.213043,319.058502 367.703552,315.953674 
	C368.653076,315.297150 369.493134,314.482391 370.593414,313.433411 
z"/>
<path fill="#000000" opacity="1.000000" stroke="none" 
	d="
M708.080688,536.852417 
	C711.151550,540.658875 710.606567,543.926208 707.327637,546.692932 
	C704.411438,549.153503 699.939148,548.728882 697.445312,545.868896 
	C695.045227,543.116394 694.949585,539.969055 697.235596,537.272095 
	C700.341125,533.608215 704.068054,533.809143 708.080688,536.852417 
z"/>
<path fill="#000000" opacity="1.000000" stroke="none" 
	d="
M388.963043,484.297119 
	C385.037964,483.998199 383.529205,482.010193 383.864105,478.608826 
	C384.114746,476.063416 385.252289,474.066925 388.073669,473.901184 
	C390.967346,473.731232 392.865936,475.542816 393.660675,478.029480 
	C394.817139,481.647888 393.023346,483.713898 388.963043,484.297119 
z"/>
<path fill="#000000" opacity="1.000000" stroke="none" 
	d="
M631.430420,340.921936 
	C634.570618,340.399353 636.802002,341.135345 637.939392,343.849548 
	C638.640991,345.523590 638.186035,347.138458 637.044128,348.491272 
	C635.622437,350.175537 633.734314,350.612030 631.641113,350.163025 
	C629.865356,349.782074 628.637573,348.680664 628.283142,346.896545 
	C627.772461,344.325470 628.862000,342.402710 631.430420,340.921936 
z"/>
<path fill="#000000" opacity="1.000000" stroke="none" 
	d="
M532.812866,322.063293 
	C533.067261,318.563477 534.806580,317.225433 537.808716,317.767303 
	C540.239990,318.206177 541.586243,319.952087 541.541016,322.321472 
	C541.495667,324.696991 539.997375,326.458832 537.650269,326.803467 
	C534.554565,327.257935 533.242432,325.240509 532.812866,322.063293 
z"/>
<path fill="#000000" opacity="1.000000" stroke="none" 
	d="
M479.287903,626.630920 
	C483.121948,627.442261 481.814728,629.681641 480.823303,631.517334 
	C479.538696,633.895996 477.473511,635.169495 474.648712,634.314880 
	C471.203613,633.272461 469.945557,629.946411 471.519409,626.143982 
	C473.737366,626.131226 472.509583,629.263245 474.507172,629.432556 
	C476.658020,629.638245 477.220032,627.208374 479.287903,626.630920 
z"/>
<path fill="#000000" opacity="1.000000" stroke="none" 
	d="
M358.717987,593.143127 
	C355.393768,593.539429 353.349457,592.302368 352.935181,589.409058 
	C352.606659,587.114746 353.741119,585.093933 356.051819,584.344910 
	C358.304108,583.614807 360.414185,584.319946 361.553619,586.484741 
	C363.108459,589.438904 361.654053,591.497559 358.717987,593.143127 
z"/>
<path fill="#000000" opacity="1.000000" stroke="none" 
	d="
M680.850830,460.753723 
	C676.834839,465.390411 672.066711,467.028137 666.791260,464.721588 
	C662.044006,462.646057 659.651794,458.531250 659.638367,453.169128 
	C659.623779,447.355286 662.232971,442.826630 666.716675,441.170471 
	C671.651794,439.347595 677.814331,440.765839 680.911377,444.437164 
	C684.327454,448.486572 684.730591,454.353302 681.917664,459.225952 
	C681.669739,459.655365 681.362732,460.050720 680.850830,460.753723 
z"/>
</svg>